<svg xmlns="http://www.w3.org/2000/svg" xmlns:xlink="http://www.w3.org/1999/xlink" version="1.0" x="0px" y="0px" viewBox="0 0 100 100" enable-background="new 0 0 100 100" xml:space="preserve"><path d="M30.2342682,90.5971222c-15.5417118-2.0398483-22.0622368-15.1416245-19.4934158-26.898922  c2.2066517-11.1558571,10.6654882-20.1050606,11.4010382-31.1383247c3.1873894,5.7618141,3.5551662,9.9299355,3.9229393,16.0595284  C36.2399521,36.115036,46.7828522,19.4425468,44.4536057,4.2411609c0,0,33.7656937,33.1255989,1.1281013,66.3460083  l-0.1457024,0.0485687c1.7162857-8.7040176-3.0664673-13.9252739-3.0664673-13.9252739s-1.471096,7.8458824-6.865139,15.8143501  c-3.5443153,5.1003571-6.2961674,10.3835907-5.3325367,17.7840576L30.2342682,90.5971222z"></path><path d="M68.6028671,94.8487015c40.8941269-28.9240494,11.1880569-68.0112991,4.7824173-72.5865479  c0,0,16.8788452,20.0585213-13.8160362,45.1195335C54.78228,71.2898865,47.9186554,81.6228867,48.6748734,86.2969666  c2.2026291-3.283638,6.9907341-8.4788818,15.7511597-9.5902481c13.0161819-1.6513062,13.1133194-13.4047279,13.1133194-13.4047279  s5.4395981,15.1531715-8.7422104,31.1805611L68.6028671,94.8487015z"></path></svg>