<svg xmlns="http://www.w3.org/2000/svg" xmlns:xlink="http://www.w3.org/1999/xlink" version="1.0" x="0px" y="0px" viewBox="0 0 1000 1000" enable-background="new 0 0 1000 1000" xml:space="preserve"><g><path d="M315.875,370.773c36.657-63.508,86.544-125.016,123.735-175.788c54.48-74.376,50.723-124.651,50.723-124.651   c30.667,53.333,27.599,110.205,25.26,154.189c-7.88,148.141,30.356,237.435,30.356,237.435l77.399-92.977   c27.893,226.133,151.607,314.281,73.188,458.55C670.052,876.236,635.472,906,601.703,924h-0.004c4.117-5,8.036-11.311,11.68-18.011   c43.707-80.397-25.229-129.539-40.771-255.544l-43.126,51.852c0,0-96.385-134.901-81.889-239.705c0,0-50.414,79.684-75.865,155.978   c-19.893,59.599-57.084,234.894,23.881,315.809C145.713,843.353,257.478,471.949,315.875,370.773z"></path></g></svg>